<svg xmlns="http://www.w3.org/2000/svg" xmlns:xlink="http://www.w3.org/1999/xlink" width="1920" zoomAndPan="magnify" viewBox="0 0 1440 809.999993" height="1080" preserveAspectRatio="xMidYMid meet" version="1.0"><defs><clipPath id="d9fdb24696"><path d="M 0 30 L 1440 30 L 1440 780.449219 L 0 780.449219 Z M 0 30 " clip-rule="nonzero"/></clipPath></defs><g clip-path="url(#d9fdb24696)"><path fill="#bb0000" d="M 720.015625 30.175781 C 845.777344 30.164062 967.710938 58.054688 1085.816406 113.847656 C 1223.300781 178.8125 1340.722656 277.675781 1434.722656 397.097656 C 1436.84375 399.792969 1438.597656 402.320312 1439.984375 404.683594 C 1440.039062 404.796875 1440.066406 404.910156 1440.066406 405.03125 C 1440.066406 405.140625 1440.039062 405.25 1439.984375 405.363281 C 1438.597656 407.726562 1436.84375 410.261719 1434.722656 412.964844 C 1340.738281 532.386719 1223.332031 631.285156 1085.863281 696.25 C 967.769531 752.074219 845.84375 779.992188 720.082031 780.003906 C 594.324219 780.011719 472.390625 752.117188 354.285156 696.316406 C 216.800781 631.367188 99.375 532.503906 5.378906 413.082031 C 3.253906 410.386719 1.5 407.851562 0.117188 405.476562 C 0.0585938 405.378906 0.03125 405.269531 0.03125 405.148438 C 0.03125 405.027344 0.0585938 404.917969 0.117188 404.816406 C 1.5 402.441406 3.253906 399.90625 5.378906 397.210938 C 99.359375 277.777344 216.765625 178.894531 354.234375 113.914062 C 472.328125 58.101562 594.257812 30.1875 720.015625 30.175781 Z M 72.207031 405.128906 C 72.207031 405.855469 72.515625 406.589844 73.128906 407.324219 C 100.007812 439.261719 129.027344 469.621094 160.183594 498.402344 C 312.710938 639.351562 511.019531 723.78125 719.917969 723.78125 C 928.832031 723.796875 1127.140625 639.382812 1279.683594 498.453125 C 1310.839844 469.671875 1339.855469 439.3125 1366.722656 407.375 C 1367.347656 406.636719 1367.660156 405.90625 1367.660156 405.179688 C 1367.660156 404.453125 1367.347656 403.722656 1366.722656 402.984375 C 1339.855469 371.046875 1310.839844 340.683594 1279.683594 311.890625 C 1127.15625 170.941406 928.847656 86.53125 719.949219 86.511719 C 511.035156 86.511719 312.730469 170.925781 160.183594 311.859375 C 129.027344 340.640625 100.007812 371 73.128906 402.9375 C 72.515625 403.671875 72.207031 404.40625 72.207031 405.128906 Z M 72.207031 405.128906 " fill-opacity="1" fill-rule="nonzero"/></g><path fill="#bb0000" d="M 722.769531 110.945312 C 757.402344 111.261719 790.710938 117.390625 822.691406 129.320312 C 939.96875 173.070312 1017.519531 281.835938 1016.347656 407.835938 C 1015.191406 533.839844 935.628906 641.148438 817.546875 682.703125 C 785.355469 694.042969 751.941406 699.554688 717.3125 699.234375 C 682.679688 698.90625 649.371094 692.777344 617.390625 680.855469 C 500.113281 637.109375 422.5625 528.328125 423.71875 402.328125 C 424.890625 276.339844 504.453125 169.03125 622.539062 127.457031 C 654.726562 116.128906 688.140625 110.625 722.769531 110.945312 Z M 908.128906 278.914062 C 908.128906 277.78125 908.101562 276.652344 908.046875 275.523438 C 907.988281 274.394531 907.90625 273.265625 907.796875 272.140625 C 907.683594 271.011719 907.546875 269.890625 907.378906 268.773438 C 907.214844 267.652344 907.019531 266.539062 906.800781 265.429688 C 906.578125 264.320312 906.332031 263.214844 906.058594 262.117188 C 905.78125 261.023438 905.480469 259.933594 905.152344 258.847656 C 904.824219 257.765625 904.46875 256.691406 904.089844 255.628906 C 903.707031 254.5625 903.300781 253.507812 902.867188 252.460938 C 902.433594 251.417969 901.976562 250.382812 901.492188 249.359375 C 901.007812 248.339844 900.5 247.328125 899.96875 246.332031 C 899.433594 245.332031 898.875 244.347656 898.292969 243.378906 C 897.714844 242.410156 897.109375 241.453125 896.480469 240.511719 C 895.851562 239.570312 895.199219 238.648438 894.527344 237.738281 C 893.851562 236.828125 893.15625 235.9375 892.4375 235.0625 C 891.722656 234.191406 890.984375 233.332031 890.222656 232.496094 C 889.464844 231.65625 888.683594 230.839844 887.882812 230.039062 C 887.082031 229.238281 886.265625 228.457031 885.425781 227.699219 C 884.589844 226.9375 883.730469 226.199219 882.859375 225.484375 C 881.984375 224.765625 881.089844 224.070312 880.183594 223.394531 C 879.273438 222.722656 878.347656 222.070312 877.410156 221.441406 C 876.46875 220.8125 875.511719 220.207031 874.542969 219.625 C 873.574219 219.046875 872.589844 218.488281 871.589844 217.953125 C 870.59375 217.421875 869.582031 216.914062 868.5625 216.429688 C 867.539062 215.945312 866.503906 215.488281 865.457031 215.054688 C 864.414062 214.621094 863.359375 214.214844 862.292969 213.832031 C 861.230469 213.453125 860.15625 213.097656 859.074219 212.769531 C 857.988281 212.441406 856.898438 212.140625 855.800781 211.863281 C 854.707031 211.589844 853.601562 211.339844 852.492188 211.121094 C 851.382812 210.902344 850.269531 210.707031 849.148438 210.542969 C 848.03125 210.375 846.90625 210.238281 845.78125 210.125 C 844.65625 210.015625 843.527344 209.933594 842.398438 209.875 C 841.269531 209.820312 840.136719 209.792969 839.007812 209.792969 C 837.875 209.792969 836.746094 209.820312 835.617188 209.875 C 834.484375 209.933594 833.359375 210.015625 832.230469 210.125 C 831.105469 210.238281 829.984375 210.375 828.863281 210.542969 C 827.746094 210.707031 826.632812 210.902344 825.523438 211.121094 C 824.414062 211.339844 823.308594 211.589844 822.210938 211.863281 C 821.113281 212.140625 820.023438 212.441406 818.941406 212.769531 C 817.859375 213.097656 816.785156 213.453125 815.722656 213.832031 C 814.65625 214.214844 813.601562 214.621094 812.554688 215.054688 C 811.511719 215.488281 810.476562 215.945312 809.453125 216.429688 C 808.429688 216.914062 807.421875 217.421875 806.421875 217.953125 C 805.425781 218.488281 804.441406 219.046875 803.472656 219.625 C 802.5 220.207031 801.546875 220.8125 800.605469 221.441406 C 799.664062 222.070312 798.742188 222.722656 797.832031 223.394531 C 796.921875 224.070312 796.03125 224.765625 795.15625 225.484375 C 794.28125 226.199219 793.425781 226.9375 792.589844 227.699219 C 791.75 228.457031 790.929688 229.238281 790.132812 230.039062 C 789.332031 230.839844 788.550781 231.65625 787.792969 232.496094 C 787.03125 233.332031 786.292969 234.191406 785.574219 235.0625 C 784.859375 235.9375 784.164062 236.832031 783.488281 237.738281 C 782.816406 238.648438 782.164062 239.570312 781.535156 240.511719 C 780.90625 241.453125 780.300781 242.410156 779.71875 243.378906 C 779.136719 244.347656 778.582031 245.332031 778.046875 246.332031 C 777.515625 247.328125 777.007812 248.339844 776.523438 249.359375 C 776.039062 250.382812 775.582031 251.417969 775.148438 252.460938 C 774.714844 253.507812 774.308594 254.5625 773.925781 255.628906 C 773.546875 256.691406 773.191406 257.765625 772.863281 258.847656 C 772.535156 259.933594 772.234375 261.023438 771.957031 262.117188 C 771.683594 263.214844 771.433594 264.320312 771.214844 265.429688 C 770.992188 266.539062 770.800781 267.652344 770.632812 268.773438 C 770.46875 269.890625 770.328125 271.011719 770.21875 272.140625 C 770.109375 273.265625 770.023438 274.394531 769.96875 275.523438 C 769.914062 276.652344 769.886719 277.78125 769.886719 278.914062 C 769.886719 280.046875 769.914062 281.175781 769.96875 282.304688 C 770.023438 283.4375 770.109375 284.5625 770.21875 285.6875 C 770.328125 286.816406 770.46875 287.9375 770.632812 289.054688 C 770.800781 290.175781 770.992188 291.289062 771.214844 292.398438 C 771.433594 293.507812 771.683594 294.613281 771.957031 295.710938 C 772.234375 296.804688 772.535156 297.898438 772.863281 298.980469 C 773.191406 300.0625 773.546875 301.136719 773.925781 302.199219 C 774.308594 303.265625 774.714844 304.320312 775.148438 305.367188 C 775.582031 306.410156 776.039062 307.445312 776.523438 308.46875 C 777.007812 309.488281 777.515625 310.5 778.046875 311.496094 C 778.582031 312.496094 779.136719 313.480469 779.71875 314.449219 C 780.300781 315.421875 780.90625 316.375 781.535156 317.316406 C 782.164062 318.257812 782.816406 319.179688 783.488281 320.089844 C 784.164062 321 784.859375 321.890625 785.574219 322.765625 C 786.292969 323.640625 787.03125 324.496094 787.792969 325.332031 C 788.550781 326.171875 789.332031 326.992188 790.132812 327.789062 C 790.929688 328.589844 791.75 329.371094 792.589844 330.128906 C 793.425781 330.890625 794.28125 331.628906 795.15625 332.347656 C 796.03125 333.0625 796.921875 333.757812 797.832031 334.433594 C 798.742188 335.105469 799.664062 335.757812 800.605469 336.386719 C 801.546875 337.015625 802.5 337.621094 803.472656 338.203125 C 804.441406 338.78125 805.425781 339.339844 806.421875 339.875 C 807.421875 340.40625 808.429688 340.914062 809.453125 341.398438 C 810.476562 341.882812 811.511719 342.339844 812.554688 342.773438 C 813.601562 343.207031 814.65625 343.613281 815.722656 343.996094 C 816.785156 344.375 817.859375 344.730469 818.941406 345.058594 C 820.023438 345.386719 821.113281 345.6875 822.210938 345.964844 C 823.308594 346.238281 824.414062 346.488281 825.523438 346.707031 C 826.632812 346.929688 827.746094 347.121094 828.863281 347.289062 C 829.984375 347.453125 831.105469 347.59375 832.230469 347.703125 C 833.359375 347.8125 834.484375 347.898438 835.617188 347.953125 C 836.746094 348.007812 837.875 348.035156 839.007812 348.035156 C 840.136719 348.035156 841.269531 348.007812 842.398438 347.953125 C 843.527344 347.898438 844.65625 347.8125 845.78125 347.703125 C 846.90625 347.59375 848.03125 347.453125 849.148438 347.289062 C 850.269531 347.121094 851.382812 346.929688 852.492188 346.707031 C 853.601562 346.488281 854.707031 346.238281 855.800781 345.964844 C 856.898438 345.6875 857.988281 345.386719 859.074219 345.058594 C 860.15625 344.730469 861.230469 344.375 862.292969 343.996094 C 863.359375 343.613281 864.414062 343.207031 865.457031 342.773438 C 866.503906 342.339844 867.539062 341.882812 868.5625 341.398438 C 869.582031 340.914062 870.59375 340.40625 871.589844 339.875 C 872.589844 339.339844 873.574219 338.78125 874.542969 338.203125 C 875.511719 337.621094 876.46875 337.015625 877.410156 336.386719 C 878.347656 335.757812 879.273438 335.105469 880.183594 334.433594 C 881.089844 333.757812 881.984375 333.0625 882.859375 332.347656 C 883.730469 331.628906 884.589844 330.890625 885.425781 330.128906 C 886.265625 329.371094 887.082031 328.589844 887.882812 327.789062 C 888.683594 326.992188 889.464844 326.171875 890.222656 325.332031 C 890.984375 324.496094 891.722656 323.640625 892.4375 322.765625 C 893.15625 321.890625 893.851562 321 894.527344 320.089844 C 895.199219 319.179688 895.851562 318.257812 896.480469 317.316406 C 897.109375 316.375 897.714844 315.421875 898.292969 314.449219 C 898.875 313.480469 899.433594 312.496094 899.96875 311.496094 C 900.5 310.5 901.007812 309.488281 901.492188 308.46875 C 901.976562 307.445312 902.433594 306.410156 902.867188 305.367188 C 903.300781 304.320312 903.707031 303.265625 904.089844 302.199219 C 904.46875 301.136719 904.824219 300.0625 905.152344 298.980469 C 905.480469 297.898438 905.78125 296.804688 906.058594 295.710938 C 906.332031 294.613281 906.578125 293.507812 906.800781 292.398438 C 907.019531 291.289062 907.214844 290.175781 907.378906 289.054688 C 907.546875 287.9375 907.683594 286.816406 907.796875 285.6875 C 907.90625 284.5625 907.988281 283.4375 908.046875 282.304688 C 908.101562 281.175781 908.128906 280.046875 908.128906 278.914062 Z M 908.128906 278.914062 " fill-opacity="1" fill-rule="nonzero"/></svg>